<svg xmlns="http://www.w3.org/2000/svg" width="165.792" height="80" viewBox="0 0 165.792 80">
  <g id="MusicBoxLogo_" data-name="MusicBoxLogo " transform="translate(-124 -200)">
    <path id="Path_392" data-name="Path 392" d="M37.825,9.92c-1.44,0-4.066.381-5.421,2.541l-.593-2.287H28V31.646h4.616l.089-15.529c3.219-3.515,9.4-3.063,9.1,2.823V31.646h4.4V18.94c.042-3.6,2.16-5.082,4.616-5.082,2.414,0,4.574,1.44,4.574,5.209V31.646h4.532V19.152c0-6.861-4.108-9.275-9.105-9.275a7.561,7.561,0,0,0-6.818,3.6A6.573,6.573,0,0,0,37.825,9.92ZM82.46,31.646V10.174H77.843v15.67c-3.515,4.023-10.334,1.863-10.334-3.557V10.174H62.894V22.286c0,5.929,4.277,9.7,9.741,9.7a6.519,6.519,0,0,0,5.421-2.71l.593,2.372ZM92.908,18.729c-1.355-.3-3.346-.551-3.388-2.414-.042-1.948,1.99-2.541,3.388-2.541a6.361,6.361,0,0,1,4.066,1.609l2.541-2.838a8.978,8.978,0,0,0-6.691-2.838c-3.981,0-7.793,2.329-7.793,6.564.042,4.066,3.3,5.8,6.861,6.395,1.44.254,3.642.889,3.642,2.965,0,1.821-2.033,2.414-3.642,2.329a6.6,6.6,0,0,1-4.574-2.626l-2.88,2.8a8.988,8.988,0,0,0,7.581,3.981c3.473,0,8-1.694,8-6.607C100.023,21.312,96.55,19.406,92.908,18.729Zm13.8-11.562V2h-4.7V7.167Zm-4.659,2.922V31.646h4.616V10.089Zm26.211,3.134a10.963,10.963,0,0,0-8-3.473c-7.157.042-11.1,5.336-11.138,11.181,0,5.844,3.812,11.181,11.138,11.181a11.647,11.647,0,0,0,8.174-3.642L125.8,25.632a7.436,7.436,0,0,1-5.548,2.287c-4.277,0-6.564-3.219-6.564-6.9.042-4.659,3.219-7.073,6.522-7.03a7.488,7.488,0,0,1,5.463,2.118Z" transform="translate(161.362 202.706)" fill="#fff"/>
    <path id="Path_394" data-name="Path 394" d="M47.227,32.261c0-6.607-4.32-10.715-9.529-10.8A7.78,7.78,0,0,0,32.532,23.2V13.5H28V43.146l2.353-.235,1.5-2.052a6.37,6.37,0,0,0,5.506,2.626C43.162,43.569,47.227,39,47.227,32.261ZM37.021,39.419a4.585,4.585,0,0,1-4.532-2.5V26.713a7.756,7.756,0,0,1,4.193-1.228c4.193.085,6.056,3.3,6.056,7.2C42.738,36.073,40.79,39.419,37.021,39.419Zm16.355-6.988a6.507,6.507,0,0,1,6.607-6.946c3.261,0,6.564,2.2,6.564,6.946s-3.3,7.03-6.564,7.03C56.807,39.461,53.376,37.174,53.376,32.431Zm17.787,0a11.2,11.2,0,0,0-22.4,0,11.2,11.2,0,0,0,22.4,0Zm9.654-2.668-5.082-8.131H70.357l7.2,10.757L70.23,43.146h4.955l5.59-8.131L86.2,43.146h5.04L83.951,32.388l7.2-10.757h-5Z" transform="translate(161.362 218.263)" fill="#fff"/>
    <path id="Path_393" data-name="Path 393" d="M34.563,0V8.324c0,9.731.031,19.5-.031,29.227a2.946,2.946,0,0,0,1.715,3c4.988,2.755,9.882,5.691,14.823,8.569.235.153.489.336.941.642C44.666,54.016,37.5,58.148,29.977,62.493V8.049c-2.143,1.223-3.917,2.2-5.661,3.183-5.882,3.367-11.722,6.795-17.627,10.1A2.964,2.964,0,0,0,4.915,24.3c.061,10.468.061,20.9,0,31.37a2.6,2.6,0,0,0,1.468,2.541c9.334,5.355,17.761,10.423,27.1,15.75a2.588,2.588,0,0,0,2.958,0C40.156,71.98,53.247,64.51,62.023,59.5c3.746-2.141,3.607-2.887,3.612-6.4.014-12.3-.053-36.161-.053-36.161l4.709,4.339s0,27.328.026,37.269A2.263,2.263,0,0,1,69,60.813Q52.7,70.178,36.438,79.636a2.07,2.07,0,0,1-2.388-.031Q18.121,70.378,2.129,61.213a3.193,3.193,0,0,1-1.9-3.183C.322,45.88.292,33.761.261,21.611A2.84,2.84,0,0,1,1.821,18.7c9.647-5.411,19.189-10.957,28.8-16.434C31.841,1.56,33.064.887,34.563,0Z" transform="translate(123.78 200)" fill="#fff"/>
  </g>
</svg>
